<svg width="200" height="200" viewBox="0 0 200 200" fill="none" xmlns="http://www.w3.org/2000/svg">
<path fill-rule="evenodd" clip-rule="evenodd" d="M100 200C155.228 200 200 155.228 200 100C200 44.7715 155.228 0 100 0C44.7715 0 0 44.7715 0 100C0 155.228 44.7715 200 100 200ZM100 181.053C144.764 181.053 181.053 144.764 181.053 100C181.053 55.2359 144.764 18.9474 100 18.9474C55.2359 18.9474 18.9474 55.2359 18.9474 100C18.9474 144.764 55.2359 181.053 100 181.053Z" fill="white"/>
<path fill-rule="evenodd" clip-rule="evenodd" d="M100 162.105C134.3 162.105 162.105 134.3 162.105 100C162.105 65.7002 134.3 37.8948 100 37.8948C65.7002 37.8948 37.8947 65.7002 37.8947 100C37.8947 134.3 65.7002 162.105 100 162.105ZM100 143.158C123.835 143.158 143.158 123.835 143.158 100C143.158 76.1646 123.835 56.8421 100 56.8421C76.1645 56.8421 56.8421 76.1646 56.8421 100C56.8421 123.835 76.1645 143.158 100 143.158Z" fill="white"/>
<path d="M124 100C124 113.255 113.255 124 100 124C86.7452 124 76 113.255 76 100C76 86.7452 86.7452 76 100 76C113.255 76 124 86.7452 124 100Z" fill="white"/>
</svg>
