<?xml version="1.0" standalone="no"?>
<!DOCTYPE svg PUBLIC "-//W3C//DTD SVG 20010904//EN"
 "http://www.w3.org/TR/2001/REC-SVG-20010904/DTD/svg10.dtd">
<svg version="1.0" xmlns="http://www.w3.org/2000/svg"
 width="700.000000pt" height="700.000000pt" viewBox="0 0 700.000000 700.000000"
 preserveAspectRatio="xMidYMid meet">
<metadata>
Created by potrace 1.14, written by Peter Selinger 2001-2017
</metadata>
<g transform="translate(0.000000,700.000000) scale(0.100000,-0.100000)"
fill="#000000" stroke="none">
<path d="M3190 6174 c-480 -57 -916 -232 -1310 -525 -151 -112 -402 -360 -513
-506 -286 -377 -455 -777 -532 -1260 -26 -156 -31 -499 -11 -673 74 -632 330
-1165 775 -1611 382 -382 840 -630 1355 -734 679 -137 1369 -17 1952 340 349
214 675 540 889 889 528 862 528 1950 0 2812 -110 180 -230 330 -394 494 -234
234 -434 378 -716 515 -295 144 -559 222 -885 259 -164 19 -450 19 -610 0z
m680 -524 c829 -146 1504 -753 1730 -1557 59 -208 74 -334 74 -593 0 -201 -3
-254 -22 -363 -166 -926 -863 -1623 -1787 -1788 -112 -20 -163 -23 -365 -23
-256 0 -333 9 -554 65 -503 127 -967 458 -1260 899 -173 259 -281 532 -338
847 -19 109 -22 162 -22 363 0 202 3 253 23 365 134 755 630 1371 1336 1659
171 69 372 120 575 145 131 17 468 6 610 -19z"/>
<path d="M3282 5159 c-191 -26 -438 -109 -602 -203 -197 -113 -399 -291 -523
-461 -173 -237 -284 -519 -318 -805 -16 -141 -6 -384 21 -515 142 -675 644
-1175 1325 -1317 95 -20 138 -23 320 -22 179 0 225 3 314 22 684 148 1179 642
1321 1317 27 131 37 374 21 515 -34 286 -142 562 -316 802 -81 112 -259 288
-375 370 -180 128 -413 228 -646 278 -115 25 -421 35 -542 19z m501 -532 c417
-110 731 -423 844 -844 24 -89 27 -114 27 -283 0 -169 -3 -194 -27 -283 -56
-209 -159 -390 -307 -537 -147 -148 -328 -251 -537 -307 -89 -24 -114 -27
-283 -27 -167 0 -194 3 -280 26 -510 138 -856 561 -877 1074 -14 339 101 638
337 874 171 171 377 279 622 326 118 22 359 12 481 -19z"/>
<path d="M3415 4141 c-212 -35 -390 -158 -482 -336 -56 -108 -76 -189 -76
-305 0 -250 133 -464 359 -578 90 -46 175 -65 284 -65 176 0 330 64 455 188
124 125 188 279 188 455 0 250 -135 468 -359 579 -107 53 -261 79 -369 62z"/>
</g>
</svg>
