<?xml version="1.0" standalone="no"?>
<!DOCTYPE svg PUBLIC "-//W3C//DTD SVG 20010904//EN"
 "http://www.w3.org/TR/2001/REC-SVG-20010904/DTD/svg10.dtd">
<svg version="1.0" xmlns="http://www.w3.org/2000/svg"
 width="700.000000pt" height="700.000000pt" viewBox="0 0 700.000000 700.000000"
 preserveAspectRatio="xMidYMid meet">
<metadata>
Created by potrace 1.14, written by Peter Selinger 2001-2017
</metadata>
<g transform="translate(0.000000,700.000000) scale(0.100000,-0.100000)"
fill="#000000" stroke="none">
<path d="M2962 6468 c-146 -22 -242 -124 -272 -286 -11 -65 -15 -219 -6 -282
3 -19 10 -71 16 -115 6 -44 15 -96 20 -115 5 -19 11 -53 14 -75 4 -22 13 -80
21 -130 25 -158 37 -296 37 -455 1 -175 -5 -235 -34 -370 -39 -181 -80 -267
-222 -460 -51 -69 -124 -170 -163 -226 -69 -97 -76 -103 -234 -215 -90 -63
-187 -126 -217 -140 -61 -30 -83 -30 -277 -5 -11 2 -45 6 -75 10 -30 4 -66 9
-80 11 -14 3 -47 7 -75 10 -27 3 -68 8 -90 11 -87 13 -193 20 -256 19 -57 -1
-72 -5 -105 -30 -108 -82 -197 -225 -263 -423 -45 -134 -50 -156 -75 -347 -13
-98 -14 -363 -2 -455 4 -25 9 -64 11 -87 4 -39 28 -190 40 -258 29 -153 99
-373 161 -505 139 -295 282 -413 498 -412 49 1 101 3 115 6 14 3 42 8 61 11
57 9 135 33 254 79 210 81 264 85 497 32 138 -31 284 -59 374 -72 17 -3 53 -9
80 -14 28 -5 72 -12 98 -15 27 -4 56 -8 65 -9 31 -6 107 -16 162 -21 30 -3 73
-7 95 -10 22 -2 92 -6 155 -10 192 -9 212 -12 415 -49 96 -17 258 -52 495
-107 96 -23 182 -42 190 -44 13 -3 599 -149 640 -160 8 -2 76 -20 150 -39 74
-19 254 -67 400 -105 286 -75 362 -89 467 -84 224 10 388 142 401 323 8 110
-30 191 -115 246 -26 17 -94 47 -150 68 -57 20 -194 73 -305 117 -285 113
-616 239 -663 254 -36 11 -29 12 80 11 66 -1 136 2 155 6 102 21 181 83 225
179 30 67 39 119 38 219 -1 114 -29 177 -117 265 -69 69 -132 106 -346 204
-28 13 -33 14 100 -15 77 -16 200 -18 252 -4 107 30 190 132 229 281 75 290
-34 472 -376 626 -157 71 -144 64 -110 57 270 -55 402 -30 487 91 71 101 98
278 59 387 -97 279 -517 505 -1180 638 -336 66 -432 70 -711 24 -52 -9 -132
-24 -178 -35 -121 -28 -115 -30 -107 44 4 34 9 71 11 81 2 11 6 42 9 70 3 28
8 62 10 76 18 112 26 492 13 655 -34 424 -140 717 -327 903 -131 129 -309 194
-469 170z"/>
</g>
</svg>
